<svg width="2208" height="2215" xmlns="http://www.w3.org/2000/svg" xml:space="preserve" enable-background="new 0 0 1024 512" version="1.1">

 <g>
  <title>Layer 1</title>
  <polygon id="svg_1" points="532.75,1959.3599853515625 1828.75,1611.3599853515625 1824.75,655.3599853515625 1576.75,407.3599853515625 776.75,403.3599853515625 600.75,495.3599853515625 508.75,851.3599853515625 512.75,1915.3599853515625 " fill="#174B62" clip-rule="evenodd" fill-rule="evenodd"/>
  <polygon id="svg_2" points="1817.75,1763.3599853515625 1813.75,2182.3599853515625 1386.75,2196.3599853515625 512.75,2190.3599853515625 513.75,2102.3599853515625 523.75,2087.3599853515625 1494.75,1833.3599853515625 1813.75,1753.3599853515625 " fill="#174B62" clip-rule="evenodd" fill-rule="evenodd"/>
  <polygon id="svg_3" points="1579.969970703125,642.8999786376953 1821.1800537109375,642.8999786376953 1579.969970703125,401.66998291015625 " fill="#425F72"/>
  <polygon id="svg_4" points="1579.969970703125,642.8999786376953 1821.1800537109375,642.8999786376953 1579.969970703125,401.66998291015625 " fill="#24CAEC"/>
  <path id="svg_5" d="m532.87,2173.61999l1267.67,0l0,-399.95l-1267.67,331.91l0,68.04zm1288.3,41.27l-1308.93,0c-11.4,0 -20.63,-9.24 -20.63,-20.64l0,-104.59c0,-9.39 6.33,-17.59 15.4,-19.97l1308.94,-342.71c6.18,-1.62 12.77,-0.28 17.83,3.63c5.06,3.9 8.03,9.94 8.03,16.33l0,447.31c0,11.4 -9.24,20.64 -20.64,20.64z" fill="#F0F0F0" clip-rule="evenodd" fill-rule="evenodd"/>
  <path id="svg_6" d="m1600.6,451.48999l170.76,170.78l-170.76,0l0,-170.78zm241.11,189.4l-0.01,-0.06c-0.13,-1.32 -0.39,-2.62 -0.77,-3.89l-0.04,-0.12c-0.19,-0.6 -0.4,-1.19 -0.64,-1.77l-0.03,-0.08c-0.5,-1.2 -1.11,-2.35 -1.83,-3.44l-0.14,-0.2c-0.32,-0.47 -0.65,-0.93 -1.01,-1.37l-0.17,-0.22c-0.41,-0.49 -0.84,-0.97 -1.3,-1.43l-241.21,-241.23c-0.46,-0.45 -0.94,-0.88 -1.43,-1.28l-0.3,-0.24c-0.39,-0.32 -0.8,-0.62 -1.22,-0.91l-0.35,-0.24c-1.04,-0.67 -2.12,-1.25 -3.24,-1.73l-0.49,-0.19c-0.41,-0.16 -0.82,-0.31 -1.24,-0.45l-0.56,-0.17c-0.5,-0.15 -1,-0.27 -1.51,-0.38l-0.44,-0.09l-0.22,-0.04l-567.43,0c-9.64,1.74 -16.96,10.17 -16.96,20.31c0,11.39 9.24,20.63 20.64,20.63l539.52,0l0,220.6c0,11.4 9.24,20.63 20.64,20.63l220.57,0l0,944.28l-1267.67,331.88l0,-1033.66c0,-11.4 -9.23,-20.64 -20.63,-20.64s-20.63,9.24 -20.63,20.64l0,1060.39c0,6.4 2.96,12.43 8.02,16.34c3.65,2.82 8.1,4.3 12.61,4.3c1.75,0 3.5,-0.22 5.23,-0.68l1308.93,-342.68c9.07,-2.38 15.41,-10.58 15.41,-19.96l0,-980.27c0.02,-0.86 -0.02,-1.73 -0.1,-2.58z" fill="#F0F0F0" clip-rule="evenodd" fill-rule="evenodd"/>
  <path id="svg_7" d="m968.29,1282.87999l-252.61,0c-6.05,0 -11.67,-3.14 -14.85,-8.28c-3.18,-5.15 -3.47,-11.58 -0.76,-16.99l162.39,-324.8c4.31,-8.62 14.8,-12.12 23.42,-7.81c8.63,4.31 12.12,14.8 7.81,23.43l-149.76,299.53l224.36,0c9.64,0 17.46,7.81 17.46,17.46c0,9.64 -7.82,17.46 -17.46,17.46z" fill="#24CAEC"/>
  <path id="svg_8" d="m891.3,1478.95999c-9.64,0 -17.45,-7.82 -17.45,-17.46l0,-358.48c0,-9.65 7.81,-17.46 17.45,-17.46c9.65,0 17.46,7.81 17.46,17.46l0,358.48c0,9.64 -7.81,17.46 -17.46,17.46z" fill="#24CAEC"/>
  <path id="svg_9" d="m1617.75,1282.87999l-252.61,0c-6.05,0 -11.67,-3.14 -14.85,-8.28c-3.18,-5.15 -3.47,-11.58 -0.76,-16.99l162.39,-324.8c4.31,-8.62 14.8,-12.12 23.42,-7.81c8.63,4.31 12.12,14.8 7.81,23.43l-149.76,299.53l224.36,0c9.65,0 17.46,7.81 17.46,17.46c0,9.64 -7.81,17.46 -17.46,17.46z" fill="#24CAEC"/>
  <path id="svg_10" d="m1540.77,1545.61999c-9.64,0 -17.46,-7.82 -17.46,-17.46l0,-358.48c0,-9.64 7.82,-17.46 17.46,-17.46c9.64,0 17.46,7.82 17.46,17.46l0,358.48c0,9.64 -7.82,17.46 -17.46,17.46z" fill="#24CAEC"/>
  <path id="svg_11" d="m1117.35,958.07999c-20.22,0 -36.68,16.45 -36.68,36.67l0,412.61c0,20.23 16.46,36.68 36.68,36.68l96.23,0c20.22,0 36.67,-16.45 36.67,-36.68l0,-412.61c0,-20.22 -16.45,-36.67 -36.67,-36.67l-96.23,0zm96.23,520.88l-96.23,0c-39.48,0 -71.59,-32.12 -71.59,-71.6l0,-412.61c0,-39.48 32.11,-71.59 71.59,-71.59l96.23,0c39.47,0 71.59,32.11 71.59,71.59l0,412.61c0,39.48 -32.12,71.6 -71.59,71.6z" fill="#24CAEC" clip-rule="evenodd" fill-rule="evenodd"/>
  <path id="svg_12" d="m1882.54,353.79999c-5.28,0 -10.56,-2.02 -14.59,-6.05c-8.06,-8.06 -8.06,-21.12 0,-29.18l90.19,-90.2c8.06,-8.05 21.12,-8.05 29.18,0c8.06,8.06 8.06,21.13 0,29.18l-90.19,90.2c-4.03,4.03 -9.31,6.05 -14.59,6.05z" fill="#F0F0F0"/>
  <path id="svg_13" d="m2187.05,781.03999l-127.55,0c-11.39,0 -20.63,-9.24 -20.63,-20.64c0,-11.39 9.24,-20.63 20.63,-20.63l127.55,0c11.4,0 20.64,9.24 20.64,20.63c0,11.4 -9.24,20.64 -20.64,20.64z" fill="#F0F0F0"/>
  <path id="svg_14" d="m1455.31,168.81999c-11.39,0 -20.63,-9.23 -20.63,-20.63l0,-127.56c0,-11.39 9.24,-20.63 20.63,-20.63c11.4,0 20.64,9.24 20.64,20.63l0,127.56c0,11.4 -9.24,20.63 -20.64,20.63z" fill="#F0F0F0"/>
  <path id="svg_15" d="m2014.76,549.65999c-6.89,0 -13.41,-4.1 -16.18,-10.87c-3.64,-8.93 0.65,-19.12 9.58,-22.76l59.05,-24.09c8.92,-3.64 19.11,0.64 22.76,9.57c3.64,8.93 -0.65,19.12 -9.58,22.76l-59.05,24.09c-2.16,0.88 -4.39,1.3 -6.58,1.3z" fill="#F0F0F0"/>
  <path id="svg_16" d="m1689.53,220.89999c-2.26,0 -4.55,-0.44 -6.77,-1.37c-8.88,-3.74 -13.06,-13.97 -9.32,-22.86l23.57,-56.05c3.74,-8.89 13.97,-13.06 22.86,-9.32c8.89,3.73 13.06,13.97 9.33,22.86l-23.57,56.05c-2.81,6.67 -9.29,10.69 -16.1,10.69z" fill="#F0F0F0"/>
  <path id="svg_17" d="m512.24,834.18999c-11.4,0 -20.63,-9.23 -20.63,-20.63l0,-411.89c0,-11.4 9.23,-20.64 20.63,-20.64l313.54,0c11.39,0 20.63,9.24 20.63,20.64c0,11.39 -9.24,20.63 -20.63,20.63l-292.91,0l0,391.26c0,11.4 -9.23,20.63 -20.63,20.63z" fill="#F0F0F0"/>
  <rect id="svg_18" height="41" width="458" fill="#F0F0F0" clip-rule="evenodd" fill-rule="evenodd" y="381.35999" x="577.75"/>
  <path id="svg_19" d="m186.75,517.35999c0,-208.218 165.2,-377 369,-377s369,168.782 369,377s-165.2,377 -369,377s-369,-168.782 -369,-377z" fill="#174B62" clip-rule="evenodd" fill-rule="evenodd"/>
  <path id="svg_20" d="m817.05,777.39999c-143.75,143.75 -377.64,143.75 -521.38,0c-143.75,-143.75 -143.75,-377.66 0,-521.41c71.87,-71.87 166.28,-107.81 260.69,-107.81s188.81,35.94 260.69,107.81c143.74,143.75 143.74,377.66 0,521.41zm-558.75,80.74c-7.79,-6.61 -15.35,-13.56 -22.58,-20.79s-14.18,-14.79 -20.78,-22.58l35.16,-35.17c6.65,7.72 13.61,15.22 20.88,22.49c7.27,7.27 14.77,14.23 22.49,20.88l-35.17,35.17zm-171.04,171.04c-11.95,11.96 -31.41,11.96 -43.36,0c-5.8,-5.79 -8.99,-13.49 -8.99,-21.68s3.19,-15.89 8.99,-21.68l146.27,-146.28c6.66,7.75 13.63,15.28 20.86,22.51c7.22,7.22 14.75,14.19 22.5,20.86l-146.27,146.27zm843.13,-664.35c-20.3,-50.08 -50.13,-95.01 -88.65,-133.53s-83.45,-68.35 -133.52,-88.66c-48.36,-19.61 -99.45,-29.55 -151.86,-29.55s-103.51,9.94 -151.87,29.55c-50.07,20.31 -94.99,50.14 -133.51,88.66c-38.53,38.52 -68.35,83.45 -88.66,133.53c-19.61,48.36 -29.55,99.45 -29.55,151.87c0,52.41 9.94,103.5 29.55,151.86c12.05,29.71 27.47,57.58 46.04,83.4l-209.15,209.17c-12.39,12.38 -19.21,28.85 -19.21,46.37s6.82,33.99 19.21,46.38c12.78,12.78 29.57,19.17 46.37,19.17c16.79,0 33.59,-6.39 46.37,-19.17l159.95,-159.96l0.04,-0.04l49.17,-49.17c25.81,18.57 53.68,33.99 83.38,46.04c48.36,19.61 99.46,29.55 151.87,29.55s103.5,-9.94 151.86,-29.55c50.07,-20.31 95,-50.14 133.52,-88.66s68.35,-83.45 88.65,-133.53c19.61,-48.36 29.56,-99.45 29.56,-151.86c0,-52.42 -9.95,-103.51 -29.56,-151.87z" fill="#F0F0F0" clip-rule="evenodd" fill-rule="evenodd"/>
  <path id="svg_21" d="m686.55,260.30999c-2.52,0 -5.07,-0.54 -7.49,-1.69c-73.39,-34.9 -158.49,-36.85 -233.48,-5.34c-8.89,3.73 -19.12,-0.45 -22.86,-9.34c-3.73,-8.89 0.45,-19.12 9.34,-22.86c84.14,-35.35 179.63,-33.16 262,6c8.7,4.14 12.41,14.56 8.27,23.27c-2.99,6.28 -9.26,9.96 -15.78,9.96z" fill="#F0F0F0"/>
 </g>
</svg>