<svg width="559" height="210" xmlns="http://www.w3.org/2000/svg" xml:space="preserve" enable-background="new 0 0 1024 512" version="1.1">

 <g>
  <title>Layer 1</title>
  <path id="svg_1" d="m266.13,127.38712c6.06,-0.52 10.61,-2.72 13.71,-6.63c3.1,-3.9 4.47,-8.59 4.07,-14.06c-0.26,-3.54 -1.35,-6.75 -3.29,-9.63c-1.95,-2.87 -4.68,-5.19 -8.16,-6.81c-3.57,-1.67 -7.78,-2.28 -12.51,-1.85c-10.03,0.89 -15.04,1.38 -25.06,2.46l4.18,39.15c10.82,-1.15 16.23,-1.68 27.06,-2.63zm-59.71,-54.18c0.83,-0.97 2.05,-1.55 3.69,-1.76c18.71,-2.29 28.07,-3.29 46.82,-4.97c10.3,-0.93 19.55,0.19 27.62,3.28c8.08,3.09 14.48,7.83 19.11,14.13c4.54,6.18 6.98,13.24 7.4,21.08c0.43,7.96 -1.13,15.12 -4.58,21.52c-3.46,6.4 -8.76,11.58 -15.8,15.64c-7.16,4.14 -15.96,6.68 -26.44,7.63c-9.13,0.82 -13.7,1.27 -22.82,2.24l3.13,29.37c0.16,1.51 -0.14,2.73 -0.91,3.67c-0.77,0.96 -1.9,1.51 -3.4,1.67c-6.32,0.7 -9.47,1.07 -15.78,1.85c-1.51,0.18 -2.74,-0.1 -3.7,-0.85c-0.97,-0.74 -1.55,-1.86 -1.73,-3.36l-13.56,-107.44c-0.19,-1.49 0.12,-2.72 0.95,-3.7z" fill="#B7C7C8" clip-rule="evenodd" fill-rule="evenodd"/>
  <path id="svg_2" d="m345.1,121.69712c-3.58,3.72 -5.19,7.87 -4.87,12.42c17.03,-3.19 25.57,-4.64 42.7,-7.26c-0.73,-2.64 -2.15,-5.03 -4.3,-7.14c-2.14,-2.11 -4.8,-3.68 -7.97,-4.7c-3.18,-1.02 -6.71,-1.21 -10.59,-0.55c-6.39,1.08 -11.39,3.51 -14.97,7.23zm5.03,57.94c-7.2,-1.63 -13.7,-5.03 -19.51,-10.09c-6.14,-5.33 -10.39,-13.1 -12.51,-23.37c-1.73,-8.38 -1.23,-16.21 1.59,-23.46s7.49,-13.34 14.01,-18.21c6.52,-4.86 14.29,-8.08 23.22,-9.59c7.87,-1.33 15.53,-0.89 22.87,1.3c7.34,2.2 13.6,6.07 18.77,11.56c3.4,3.6 5.75,7.24 7.1,10.93c1.34,3.68 2.35,8.07 3.02,13.17c0.28,2.09 -0.05,3.92 -0.99,5.47c-0.95,1.55 -2.45,2.46 -4.5,2.75c-24.34,3.37 -36.48,5.35 -60.63,9.89c2.08,4.94 5.57,8.18 10.45,9.75c4.88,1.58 9.88,1.93 15.03,1.06c4.14,-0.7 7.58,-1.88 10.33,-3.54c2.75,-1.67 5.12,-3.77 7.13,-6.33c1.15,-1.29 2.3,-2.03 3.42,-2.2c0.91,-0.14 1.88,0.03 2.89,0.48c4.31,1.69 6.46,2.54 10.74,4.26c1.75,0.67 2.72,1.65 2.9,2.95c0.11,0.8 -0.17,1.8 -0.82,3.01c-7.88,11.58 -18.87,18.45 -33.3,20.89c-6.96,1.18 -14.01,0.95 -21.21,-0.68z" fill="#F27652" clip-rule="evenodd" fill-rule="evenodd"/>
  <path id="svg_3" d="m480.55,173.01712c-1.34,-1.06 -1.97,-2.29 -1.87,-3.69c0.07,-1.06 0.53,-2.12 1.36,-3.14c3.07,-3.47 4.61,-5.21 7.71,-8.66c1.2,-1.32 2.52,-1.92 3.95,-1.81c1.09,0.08 2.06,0.43 2.9,1.03c3.78,2.47 7.82,4.53 12.13,6.21c4.31,1.68 8.47,2.72 12.51,3.12c3.7,0.36 6.86,-0.07 9.47,-1.31c2.61,-1.24 4.05,-2.97 4.29,-5.22c0.22,-2.03 -0.77,-3.66 -2.98,-4.86c-2.21,-1.21 -5.1,-2.27 -8.69,-3.16c-2.02,-0.46 -3.03,-0.69 -5.06,-1.14c-7.5,-1.91 -13.4,-3.81 -17.7,-5.78c-4.3,-1.97 -8.15,-4.86 -11.56,-8.66c-3.74,-4.16 -5.4,-9.61 -4.93,-16.37c0.69,-10.09 5,-17.04 13.06,-20.74c8.04,-3.69 17.41,-5.07 27.97,-4.06c6.65,0.64 12.74,2.08 18.24,4.31c5.49,2.22 10.72,5.32 15.66,9.28c1.49,1.05 2.14,2.32 1.96,3.82c-0.12,0.96 -0.7,1.97 -1.75,3.03c-3.29,3.24 -4.92,4.87 -8.18,8.13c-1.29,1.26 -2.66,1.8 -4.12,1.63c-1.13,-0.12 -2.16,-0.51 -3.11,-1.16c-7.33,-4.82 -14.54,-7.57 -21.56,-8.24c-3.05,-0.29 -5.91,0.07 -8.56,1.08c-2.65,1 -4.06,2.47 -4.22,4.41c-0.21,2.35 1.19,4.2 4.18,5.55c2.99,1.35 7.29,2.6 12.6,3.95c8.7,2.22 15.25,4.6 19.37,6.53c4.13,1.93 7.79,4.84 10.56,8.64c3.08,4.24 4.13,10.01 3.27,16.84c-1.16,9.18 -5.26,15.83 -12.21,20.04s-16.16,5.67 -27.75,4.53c-14.27,-1.41 -26.5,-6.06 -36.94,-14.13z" fill="#B7C7C8" clip-rule="evenodd" fill-rule="evenodd"/>
  <path id="svg_4" d="m38.02,10.22712c0,0 2.92,-4.87 8.77,-5.85c5.83,-0.97 7.18,-1.1 9.61,-1.95c2.43,-0.85 10.95,-3.17 16.43,-2.19c5.47,0.97 2.43,2.92 11.19,5.23c8.77,2.32 7.67,8.53 5.36,12.06c-2.32,3.54 -3.04,8.41 -3.41,9.5c-0.37,1.1 -2.19,0.13 -2.43,-3.04c0,0 -0.98,7.31 -1.1,10.96c-0.12,3.66 0.85,9.87 2.68,11.46c1.82,1.58 12.16,6.57 15.7,16.2c0,0 0.73,2.92 3.77,5.11c3.04,2.2 3.65,5.61 5.35,6.58c1.71,0.98 8.03,6.34 9.01,13.28c0.97,6.94 0.85,5.85 2.55,7.55c1.7,1.71 6.33,5.6 3.65,7.8c0,0 -0.48,2.8 -3.52,2.56c0,0 -2.2,1.46 -3.78,-1.22c0,0 -2.79,-0.61 -3.16,-2.81c-0.37,-2.19 -0.25,-4.87 -0.25,-4.87s-6.81,-0.97 -8.76,-1.09c-1.94,-0.13 -6.08,0.24 -6.08,2.31c0,2.07 0.24,6.58 0.36,9.38s1.95,3.77 4.26,20.1c2.31,16.32 2.8,14.62 3.53,17.78c0.73,3.17 5.6,9.02 6.69,10.85c1.1,1.82 -0.36,6.45 -0.85,6.45c-0.48,0 -2.06,5.6 -3.53,5.6c-1.45,0 -2.07,-1.34 -2.07,-1.34s-1.58,3.05 -2.19,3.05c-0.6,0 -2.67,-1.83 -3.16,-5.12c0,0 -3.04,-1.21 -3.04,-4.86c0,-3.66 0.36,-7.07 0.36,-7.93c0,-0.85 -1.82,0.98 -1.58,-0.73c0.25,-1.7 0.73,-2.68 0.73,-3.77c0,-1.1 -0.61,-5.48 -1.34,-7.31c-0.73,-1.83 0,-3.54 -1.82,-9.75c-1.83,-6.21 -5.48,-13.76 -6.21,-16.08c-0.73,-2.31 -3.4,-11.08 -6.45,-12.18c0,0 -2.07,2.56 -4.74,3.78c-2.68,1.22 -5.72,1.46 -5.36,-1.59l0.37,-3.04c0,0 -11.81,-1.46 -14.12,-4.63c0,0 -0.97,10.97 -4.38,21.68c0,0 -0.25,1.59 -0.25,3.05c0,1.46 -1.94,3.04 -1.94,4.51c0,1.46 -0.37,6.57 -1.58,6.82c-1.22,0.24 -1.46,0.49 -1.46,1.58c0,1.1 -1.95,5.61 -5.48,6.7l-1.58,-0.85c0,0 -2.07,1.95 -3.41,1.95c-1.34,0 -0.97,-1.1 -0.97,-1.1s-1.58,-0.97 -0.85,-2.8c0.73,-1.83 2.06,-6.34 5.47,-9.02s5.48,-7.3 5.48,-9.74s-0.12,-11.81 -0.61,-15.22c-0.49,-3.42 0,-8.9 0,-8.9s-7.3,-10.85 -6.45,-18.64c0.85,-7.79 5.11,-23.51 5.23,-26.8c0.13,-3.28 0.13,-5.97 0.13,-5.97s-5.72,-8.03 -5.48,-14.73c0,0 -0.85,-0.98 -0.61,2.8c0.24,3.77 -0.49,4.62 -2.55,2.56c-2.07,-2.07 -5.6,-4.76 -8.77,-9.87c-3.16,-5.12 0.49,-5.85 2.07,-7.43c1.59,-1.58 5.48,-5 6.57,-6.82z" fill="#D8D8D8"/>
  <path id="svg_5" d="m454.24,106.39712c6.17,0.27 11.58,-0.14 16.32,-1.09c0.51,-0.06 1.01,-0.16 1.45,-0.33c31.84,-7.33 32.25,-39.02 32.25,-39.02c-0.92,-34.06 -22.36,-44.45 -34.91,-49.01c-4.12,-1.49 -8.39,1.64 -7.83,5.99c0.37,2.92 1.69,4.23 1.69,4.23c30.57,14.9 22.64,38.3 22.64,38.3c-4.2,13.47 -15.88,16.22 -24.26,16.35l-5.7,-0.29l-0.41,-0.05c0.4,-8.22 0.17,-4.49 0.58,-12.74c0.08,-1.64 -0.37,-2.96 -1.34,-3.95c-0.98,-1 -2.37,-1.53 -4.16,-1.61c-6.76,-0.31 -10.14,-0.45 -16.9,-0.69c-1.8,-0.06 -3.22,0.36 -4.28,1.27c-1.05,0.91 -1.6,2.19 -1.66,3.84c-0.26,8.26 0.05,4.51 -0.21,12.77c-2.8,-0.09 -4.2,-0.13 -7,-0.2c-1.76,-0.05 -3.16,0.39 -4.19,1.31c-1.03,0.92 -1.56,2.2 -1.6,3.85l-0.3,12.53c-0.03,1.65 0.43,2.96 1.41,3.92c0.97,0.97 2.32,1.47 4.06,1.52c2.76,0.07 4.13,0.12 6.89,0.2l-1.64,52.27c-0.21,6.7 0.94,11.8 3.44,15.31c2.49,3.5 5.95,5.98 10.38,7.46c4.44,1.48 10.59,2.4 18.49,2.83c2.95,0.16 5.2,0.23 6.73,0.2c1.65,-0.02 2.96,-0.5 3.9,-1.44c0.95,-0.94 1.48,-2.24 1.58,-3.89l0.73,-11.63c0.21,-3.41 -1.54,-5.23 -5.25,-5.45l-1.26,-0.07c-4.91,-0.29 -8.1,-1.66 -9.6,-4.15s-2.13,-6.15 -1.89,-10.98l1.85,-37.56z" fill="#B7C7C8"/>
  <path id="svg_6" d="m152.47,110.69712c0,0 8.05,-5.11 7.06,-11.59c-0.97,-6.49 -5.29,-9.04 -6.08,-12.58c-0.78,-3.53 1.67,-11.2 4.12,-14.73c-4.22,1.37 -5.89,5.11 -11.77,7.27c-5.89,2.16 -10.21,2.25 -12.96,0.78s-1.96,-2.56 -3.73,1.97c-1.76,4.52 -3.33,6.48 -4.71,12.96c-1.37,6.49 -6.08,10.22 -12.36,11.2c-6.28,0.99 -21.79,0.4 -33.37,19.65c-11.58,19.25 -8.24,36.54 -8.24,37.53s-9.23,8.84 6.87,14.93c16.09,6.09 18.84,10.8 31.6,3.93c0,0 4.12,-0.59 10.01,0.98c5.89,1.57 11.97,-3.73 11.97,-3.73s1.96,2.36 4.91,2.55c2.94,0.2 8.63,-1.18 9.22,-8.05c0,0 0.2,-2.16 -4.31,-4.13c0,0 -1.77,0.2 -1.38,-8.05c0.39,-8.26 4.51,-18.87 9.03,-24.76c4.51,-5.89 5.3,-15.32 4.12,-26.13z" fill="#B7C7C8"/>
  <g id="svg_7">
   <path id="svg_8" d="m85.03,162.83712c-7.86,-1.41 -15.56,-1.72 -23.43,-0.07c-3.58,0.76 -6.81,2.15 -10.27,3.25c-12.44,3.98 -18.32,0.39 -25.11,-9.38c-3.15,-4.53 -10.63,-0.22 -7.45,4.36c5.4,7.77 12.57,15.46 22.61,16.21c4.95,0.36 9.08,-1.71 13.61,-3.33c9.41,-3.37 17.82,-4.48 27.75,-2.71c5.43,0.97 7.76,-7.35 2.29,-8.33z" fill="#B7C7C8"/>
  </g>
  <path id="svg_9" d="m107.69,59.55712c15.49,0.92 29.58,6.94 40.7,16.36l7.5,-8.93c-14.13,-11.99 -32.4,-19.23 -52.36,-19.23c-2.51,0 -4.97,0.16 -7.41,0.4c4.01,3.63 7.88,7.43 11.57,11.4z" fill="#F27652"/>
  <path id="svg_10" d="m45.03,166.27712c-6.91,-10.81 -10.97,-23.62 -10.97,-37.4c0,-12.15 3.13,-23.56 8.6,-33.49c-3.51,-3.1 -5.55,-7.5 -6.13,-12.13c-8.85,13 -14.04,28.7 -14.04,45.62c0,9.9 1.78,19.38 5.02,28.15c3.48,4.66 9.81,10.99 17.52,9.25z" fill="#F27652"/>
  <path id="svg_11" d="m161.77,72.13712l-6.49,10.5c10.98,12.28 17.71,28.45 17.71,46.24c0,38.4 -31.1,69.54 -69.46,69.54c-20.8,0 -38.07,-7.54 -50.8,-22.03l-13.37,1.83c14.78,19.69 37.66,31.78 64.17,31.78c44.75,0 81.04,-36.32 81.04,-81.12c0,-21.61 -8.68,-42.33 -22.8,-56.74z" fill="#F27652"/>
 </g>
</svg>